<svg width="60" height="60" viewBox="0 0 60 60" fill="none" xmlns="http://www.w3.org/2000/svg">
<g id="clean-hotel-room-and-yellow-bed-15770">
<g id="Group">
<path id="Vector" d="M53.5335 38.5663H53.4413V30.7764C53.4413 25.8199 49.4087 21.7866 44.4522 21.7866H25.0375C25.9239 21.0424 27.0659 20.5919 28.3113 20.5919C28.6749 20.5919 28.9699 20.2969 28.9699 19.9334V19.8056C28.9699 19.442 28.6749 19.147 28.3113 19.147C25.4985 19.147 23.2105 16.859 23.2105 14.0468C23.2105 13.6833 22.9155 13.3882 22.5519 13.3882H22.4242C22.0606 13.3882 21.7656 13.6833 21.7656 14.0468C21.7656 16.859 19.4776 19.147 16.6654 19.147C16.3019 19.147 16.0068 19.442 16.0068 19.8056V19.9334C16.0068 20.2969 16.3019 20.5919 16.6654 20.5919C17.9108 20.5919 19.0522 21.0424 19.9393 21.7866H15.4806C10.524 21.7866 6.49082 25.8199 6.49082 30.7764V38.5656H6.39862C4.42152 38.5656 2.81323 40.1739 2.81323 42.1517V53.3148V58.9445C2.81323 59.3087 3.10828 59.6031 3.47183 59.6031H9.10083C9.46437 59.6031 9.75942 59.3087 9.75942 58.9445V53.9741H50.1727V58.9445C50.1727 59.3087 50.4671 59.6031 50.8313 59.6031H56.461C56.8252 59.6031 57.1195 59.3087 57.1195 58.9445V53.3155V42.1523C57.1195 40.1746 55.5113 38.5663 53.5335 38.5663ZM22.4887 16.7444C23.1276 18.1189 24.2399 19.2306 25.6144 19.8695C24.2399 20.509 23.1282 21.6207 22.4887 22.9952C21.8492 21.6207 20.7375 20.509 19.363 19.8695C20.7375 19.2306 21.8492 18.1189 22.4887 16.7444ZM7.80801 30.7764C7.80801 26.5456 11.2498 23.1038 15.4806 23.1038H21.0523C21.5028 23.8638 21.7656 24.747 21.7656 25.6921C21.7656 26.0556 22.0606 26.3507 22.4242 26.3507H22.5519C22.9155 26.3507 23.2105 26.0556 23.2105 25.6921C23.2105 24.747 23.474 23.8638 23.9238 23.1038H44.4522C48.683 23.1038 52.1241 26.5456 52.1241 30.7764V38.5656H40.7568V36.3791C40.7568 34.2808 39.0504 32.5751 36.9528 32.5751H22.9794C20.8818 32.5751 19.1753 34.2815 19.1753 36.3791V38.5656H7.80801V30.7764ZM39.4403 38.5663H20.4925V36.3798C20.4925 35.0086 21.6082 33.8929 22.9794 33.8929H36.9528C38.3239 33.8929 39.4396 35.0086 39.4396 36.3798L39.4403 38.5663ZM4.13042 42.1523C4.13042 40.9017 5.14795 39.8835 6.39862 39.8835H7.14941H19.8339H40.0989H52.7834H53.5342C54.7848 39.8835 55.803 40.9017 55.803 42.1523V52.6569H50.832H9.10083H4.13042V42.1523ZM8.44223 58.2859H4.13042V53.9741H8.44223V58.2859ZM55.8024 58.2859H51.4899V53.9741H55.8024V58.2859Z" fill="#AA8453"/>
<path id="Vector_2" d="M51.7138 48.0619C51.7138 47.6977 51.4194 47.4033 51.0552 47.4033H8.87686C8.51331 47.4033 8.21826 47.6977 8.21826 48.0619C8.21826 48.4261 8.51331 48.7205 8.87686 48.7205H51.0552C51.4194 48.7205 51.7138 48.4255 51.7138 48.0619Z" fill="#AA8453"/>
<path id="Vector_3" d="M32.1022 12.8831C34.5713 12.8831 36.5806 14.8918 36.5806 17.3615C36.5806 17.7251 36.875 18.0201 37.2392 18.0201H37.3532C37.7174 18.0201 38.0118 17.7251 38.0118 17.3615C38.0118 14.8918 40.0211 12.8831 42.4902 12.8831C42.8544 12.8831 43.1488 12.588 43.1488 12.2245V12.1106C43.1488 11.747 42.8544 11.452 42.4902 11.452C40.0211 11.452 38.0118 9.44326 38.0118 6.97354C38.0118 6.60999 37.7174 6.31494 37.3532 6.31494H37.2392C36.875 6.31494 36.5806 6.60999 36.5806 6.97354C36.5806 9.44326 34.5713 11.452 32.1022 11.452C31.738 11.452 31.4436 11.747 31.4436 12.1106V12.2245C31.4436 12.588 31.738 12.8831 32.1022 12.8831ZM37.2959 9.54337C37.8596 10.6788 38.7849 11.6034 39.9197 12.1672C38.7843 12.731 37.8596 13.6556 37.2959 14.791C36.7328 13.6556 35.8074 12.731 34.6727 12.1672C35.8074 11.6034 36.7321 10.6788 37.2959 9.54337Z" fill="#AA8453"/>
<path id="Vector_4" d="M22.4887 5.42387C24.1628 5.42387 25.5254 6.78584 25.5254 8.46065C25.5254 8.82419 25.8205 9.11924 26.184 9.11924H26.2664C26.6299 9.11924 26.925 8.82419 26.925 8.46065C26.925 6.7865 28.2869 5.42387 29.9617 5.42387C30.3253 5.42387 30.6203 5.12882 30.6203 4.76528V4.68361C30.6203 4.32007 30.3253 4.02502 29.9617 4.02502C28.2876 4.02502 26.925 2.66305 26.925 0.988245C26.925 0.624701 26.6299 0.329651 26.2664 0.329651H26.184C25.8205 0.329651 25.5254 0.624701 25.5254 0.988245C25.5254 2.66239 24.1635 4.02502 22.4887 4.02502C22.1251 4.02502 21.8301 4.32007 21.8301 4.68361V4.76594C21.8301 5.12948 22.1245 5.42387 22.4887 5.42387ZM26.2249 3.22154C26.5943 3.83732 27.112 4.35498 27.7278 4.72445C27.112 5.09392 26.5943 5.61157 26.2249 6.22736C25.8547 5.61157 25.3377 5.09392 24.722 4.72445C25.3377 4.35498 25.8547 3.83732 26.2249 3.22154Z" fill="#AA8453"/>
</g>
</g>
</svg>
