<svg width="60" height="60" viewBox="0 0 60 60" fill="none" xmlns="http://www.w3.org/2000/svg">
<path d="M29.9665 5.97839C27.045 5.97839 24.6681 8.35526 24.6681 11.2768C24.6681 14.1983 27.045 16.5752 29.9665 16.5752C32.888 16.5752 35.2642 14.1983 35.2642 11.2768C35.2642 8.35526 32.888 5.97839 29.9665 5.97839Z" fill="white"/>
<path d="M52.2513 30.8792L48.5533 27.0389L44.5023 16.917C44.4384 16.7569 44.3008 16.6423 44.1526 16.6245C43.2503 16.5179 42.3428 16.4224 41.4352 16.3354C39.4851 20.7368 35.0824 23.819 29.9665 23.819C24.8505 23.819 20.4472 20.7361 18.4977 16.3341C17.5902 16.421 16.682 16.5172 15.7797 16.6239C15.6322 16.641 15.4945 16.7563 15.4306 16.9163L11.379 27.0389L7.68031 30.8792C5.57215 33.069 4.45913 36.0656 4.62707 39.1004L4.97349 45.3715C5.0433 46.6406 6.09442 47.6351 7.3655 47.6351H52.5674C53.8385 47.6351 54.889 46.6406 54.9594 45.3715L55.3059 39.1004C55.4738 36.0656 54.3608 33.069 52.2513 30.8792Z" fill="white"/>
<path d="M10.775 45.4611H8.38101C8.01746 45.4611 7.72241 45.7555 7.72241 46.1197C7.72241 46.4839 8.01746 46.7782 8.38101 46.7782H10.775C11.1385 46.7782 11.4336 46.4839 11.4336 46.1197C11.4336 45.7555 11.1385 45.4611 10.775 45.4611Z" fill="#AA8453"/>
<path d="M51.5565 45.4611H49.154C48.7898 45.4611 48.4954 45.7555 48.4954 46.1197C48.4954 46.4839 48.7898 46.7782 49.154 46.7782H51.5565C51.9207 46.7782 52.2151 46.4839 52.2151 46.1197C52.2151 45.7555 51.92 45.4611 51.5565 45.4611Z" fill="#AA8453"/>
<path d="M21.167 40.7323H38.7666C39.1308 40.7323 39.4252 40.438 39.4252 40.0738C39.4252 39.7096 39.1308 39.4152 38.7666 39.4152H21.167C20.8035 39.4152 20.5084 39.7096 20.5084 40.0738C20.5084 40.438 20.8035 40.7323 21.167 40.7323Z" fill="#AA8453"/>
<path d="M7.25875 42.3315H13.4963C15.152 42.3315 16.4995 40.984 16.4995 39.3283C16.4995 37.9683 15.5814 36.7749 14.2669 36.4259L8.02931 34.7702C7.12045 34.5298 6.17339 34.7194 5.42852 35.2924C4.68365 35.8654 4.25623 36.7334 4.25623 37.6726V39.3283C4.25557 40.984 5.60305 42.3315 7.25875 42.3315ZM5.57275 37.6726C5.57275 37.145 5.81248 36.6583 6.23069 36.3363C6.53035 36.1058 6.88797 35.9866 7.25414 35.9866C7.39904 35.9866 7.5459 36.005 7.69079 36.0439L13.9283 37.6996C14.666 37.8952 15.1816 38.565 15.1816 39.3289C15.1816 40.2582 14.4256 41.0149 13.4956 41.0149H7.2581C6.32882 41.0149 5.5721 40.2589 5.5721 39.3289L5.57275 37.6726Z" fill="#AA8453"/>
<path d="M46.4365 42.3314H52.674C54.3297 42.3314 55.6772 40.9839 55.6772 39.3282V37.6725C55.6772 36.7327 55.2505 35.8653 54.5056 35.2924C53.7594 34.7187 52.8104 34.5304 51.9041 34.7701L45.6666 36.4258C44.352 36.7749 43.434 37.9682 43.434 39.3282C43.434 40.9839 44.7808 42.3314 46.4365 42.3314ZM46.0045 37.6989L52.242 36.0432C52.3869 36.0043 52.5331 35.9859 52.6786 35.9859C53.0448 35.9859 53.4024 36.1057 53.7021 36.3356C54.1203 36.6576 54.36 37.145 54.36 37.6719V39.3276C54.36 40.2568 53.604 41.0136 52.674 41.0136H46.4365C45.5072 41.0136 44.7505 40.2575 44.7505 39.3276C44.7511 38.5649 45.2662 37.8945 46.0045 37.6989Z" fill="#AA8453"/>
<path d="M28.1382 14.7653C28.2561 14.9451 28.4537 15.0564 28.6684 15.0637C28.6756 15.0637 28.6829 15.0637 28.6901 15.0637C28.8969 15.0637 29.0925 14.9668 29.217 14.8002L34.5042 7.75195C34.7228 7.46085 34.6636 7.04791 34.3725 6.82992C34.0827 6.61126 33.6697 6.66988 33.4511 6.96164L28.7277 13.2578L26.5075 9.85879C26.308 9.55452 25.9016 9.4689 25.596 9.66714C25.2918 9.86603 25.2062 10.2744 25.4044 10.5786L28.1382 14.7653Z" fill="#AA8453"/>
<path d="M55.3355 27.9095L52.217 24.6719L48.4769 15.3258C47.8288 13.7063 46.3641 12.5748 44.655 12.3727C42.948 12.1711 41.2238 12.0091 39.5147 11.8774C39.5272 11.6778 39.545 11.4796 39.545 11.2768C39.545 5.99483 35.2484 1.69751 29.9664 1.69751C24.6845 1.69751 20.3872 5.99418 20.3872 11.2768C20.3872 11.4789 20.405 11.6772 20.4175 11.8767C18.7097 12.0085 16.9849 12.1711 15.2772 12.3727C13.5681 12.5748 12.1047 13.7063 11.4567 15.3258L7.71584 24.6719L4.5974 27.9095C1.66666 30.9529 0.118964 35.1178 0.352106 39.3375L0.698526 45.6079C0.730797 46.1875 0.842758 46.744 1.01202 47.2735V55.6765C1.01202 57.0872 2.15995 58.2351 3.57065 58.2351H11.9513C13.3626 58.2351 14.5099 57.0872 14.5099 55.6765V51.9159H45.4203V55.6765C45.4203 57.0872 46.5683 58.2351 47.979 58.2351H56.3602C57.7716 58.2351 58.9195 57.0872 58.9195 55.6765V47.2709C59.0888 46.742 59.2001 46.1868 59.2324 45.6079L59.5788 39.3368C59.8139 35.1178 58.2662 30.9529 55.3355 27.9095ZM29.9664 3.0147C34.5219 3.0147 38.2278 6.72126 38.2278 11.2768C38.2278 15.8322 34.5219 19.5382 29.9664 19.5382C25.4109 19.5382 21.7044 15.8316 21.7044 11.2761C21.7044 6.7206 25.4109 3.0147 29.9664 3.0147ZM12.6797 15.8151C13.1486 14.6441 14.2036 13.8255 15.4326 13.6806C17.1423 13.4784 18.8698 13.3151 20.5795 13.1847C21.4666 17.5558 25.3378 20.8553 29.9664 20.8553C34.5944 20.8553 38.4656 17.5558 39.3534 13.1854C41.0644 13.3158 42.7912 13.4784 44.5009 13.6806C45.7299 13.8262 46.7849 14.6441 47.2539 15.8151L50.6621 24.3301C36.9232 23.6353 23.0117 23.6353 9.2721 24.3301L12.6797 15.8151ZM5.54643 28.8237L8.57201 25.6815C22.7706 24.9373 37.1635 24.9373 51.3608 25.6815L54.3858 28.8237C57.0643 31.6049 58.4783 35.4096 58.2649 39.2644L57.9185 45.5361C57.7617 48.3753 55.4105 50.5994 52.5674 50.5994H7.36547C4.52166 50.5994 2.17114 48.3753 2.0144 45.5355L1.66798 39.265C1.45459 35.4096 2.86859 31.6036 5.54643 28.8237ZM13.194 55.6765C13.194 56.3608 12.6369 56.918 11.9526 56.918H3.57131C2.88637 56.918 2.32986 56.3608 2.32986 55.6765V49.6207C3.55682 51.0295 5.36269 51.9159 7.36547 51.9159H13.194V55.6765ZM57.603 55.6765C57.603 56.3608 57.0458 56.918 56.3609 56.918H47.9803C47.296 56.918 46.7388 56.3608 46.7388 55.6765V51.9159H52.5674C54.5702 51.9159 56.376 51.0295 57.6037 49.6201L57.603 55.6765Z" fill="#AA8453"/>
</svg>
