<svg width="60" height="60" viewBox="0 0 60 60" fill="none" xmlns="http://www.w3.org/2000/svg">
<path d="M28.4009 44.1664L30.6744 42.2235C28.8823 43.1916 27.0132 43.7475 25.0566 43.6494C24.0983 43.6019 23.2 43.2186 22.5085 42.5857C21.7261 44.003 21.3823 45.3643 21.0905 47.1715C21.0293 47.5529 20.9298 47.9223 20.7948 48.2773C21.2729 47.9513 21.7715 47.6549 22.2859 47.3915L27.8003 44.5668C28.0189 44.4561 28.2191 44.3218 28.4009 44.1664Z" fill="#AA8453"/>
<path d="M52.9137 25.7929H51.617C51.3996 14.9064 43.1158 5.96859 32.5085 4.72187C32.8365 4.26613 33.0354 3.71093 33.0354 3.10766C33.0347 1.57577 31.7893 0.329712 30.2574 0.329712C28.7256 0.329712 27.4795 1.57577 27.4795 3.10766C27.4795 3.68393 27.6567 4.22003 27.959 4.66458C17.0961 5.66827 8.53702 14.7246 8.31639 25.7936H7.01962C5.54767 25.7936 4.35034 26.9909 4.35034 28.4629C4.35034 29.9348 5.54767 31.1321 7.01962 31.1321H22.8107C22.6527 31.3653 22.5348 31.6281 22.4814 31.9185C21.9348 34.9105 21.0391 37.18 19.7377 38.8634C17.81 41.4174 17.1541 43.5941 16.72 46.2772C16.6924 46.4517 16.6041 46.6071 16.483 46.7059L15.8072 47.2374L14.8753 46.1145C14.6428 45.8346 14.2286 45.7964 13.948 46.0282L9.47684 49.7381C9.34248 49.8494 9.25752 50.0101 9.24172 50.1839C9.22525 50.3585 9.27926 50.531 9.39056 50.6654L16.6087 59.3654C16.7398 59.5221 16.9275 59.6032 17.1165 59.6032C17.2647 59.6032 17.4135 59.5538 17.5367 59.4517L22.0079 55.7418C22.1423 55.6305 22.2272 55.4698 22.243 55.2959C22.2595 55.1214 22.2055 54.9489 22.0942 54.8145L20.8415 53.305L22.5045 51.9246C22.9523 51.5532 23.441 51.2304 23.9587 50.9664L28.8658 48.4538C29.3545 48.2042 29.8136 47.8966 30.2304 47.5397L32.4947 45.6047C33.1987 45.0034 33.7691 44.2803 34.1873 43.4604L39.4652 33.2884C39.8248 32.5837 39.7721 31.7756 39.3954 31.1328H52.9137C54.385 31.1328 55.583 29.9355 55.583 28.4635C55.583 26.9916 54.385 25.7929 52.9137 25.7929ZM30.2574 1.6469C31.0622 1.6469 31.7175 2.3022 31.7175 3.10766C31.7175 3.91312 31.0622 4.56776 30.2574 4.56776C29.452 4.56776 28.7967 3.91246 28.7967 3.10766C28.7967 2.30286 29.452 1.6469 30.2574 1.6469ZM29.9663 5.88495C41.038 5.88495 50.0653 14.7766 50.2998 25.7929H9.63292C9.86738 14.7766 18.8947 5.88495 29.9663 5.88495ZM17.2021 58.0173L10.825 50.3308L14.2826 47.4626L15.2026 48.5717L15.2033 48.573L19.4071 53.6396L19.4078 53.6402L20.6598 55.1491L17.2021 58.0173ZM38.2943 32.6844L33.0163 42.8564C32.6745 43.5269 32.2108 44.1137 31.6392 44.603L29.3743 46.538C29.0358 46.8271 28.663 47.0767 28.2652 47.2802L23.358 49.7927C22.7554 50.101 22.1851 50.4764 21.6628 50.9097L19.9998 52.2895L16.6483 48.2497L17.3069 47.732C17.6875 47.4205 17.9404 46.9773 18.0201 46.4846C18.4317 43.9365 19.0166 42.0016 20.7836 39.6609C22.2121 37.8129 23.1907 35.3577 23.7762 32.1536C23.8414 31.796 24.1523 31.5332 24.5152 31.5293C24.5185 31.5293 24.5211 31.5293 24.5244 31.5293C24.7266 31.5293 24.9162 31.6076 25.0605 31.7506C25.206 31.8955 25.2857 32.0871 25.2851 32.29C25.2745 35.5704 24.8701 38.0737 24.0502 39.9422C23.9633 40.141 23.9791 40.3689 24.093 40.5533C24.2069 40.7377 24.4045 40.8543 24.6205 40.8655C28.8158 41.0822 33.3937 35.6323 36.7532 31.659C37.0561 31.3021 37.581 31.2257 37.9735 31.4838C38.372 31.7473 38.509 32.2643 38.2943 32.6844ZM25.6407 39.4765C26.2776 37.585 26.593 35.222 26.6022 32.2952C26.6036 31.8744 26.4797 31.4733 26.2486 31.1315H35.4742C32.6073 34.52 28.8685 38.8436 25.6407 39.4765ZM52.9137 29.8143H7.01896C6.27344 29.8143 5.66687 29.2077 5.66687 28.4622C5.66687 27.7167 6.27344 27.1101 7.01896 27.1101H52.9137C53.6593 27.1101 54.2658 27.7167 54.2658 28.4622C54.2658 29.2077 53.6593 29.8143 52.9137 29.8143Z" fill="#AA8453"/>
<path d="M26.2393 11.9032C21.9157 13.2296 18.7123 16.3177 17.671 20.1632C17.5762 20.5143 17.7837 20.8758 18.1347 20.9713C18.192 20.9865 18.2499 20.9944 18.3072 20.9944C18.597 20.9944 18.8631 20.8014 18.9428 20.5077C19.8516 17.1521 22.7956 14.338 26.6266 13.163C26.9743 13.0564 27.1699 12.6882 27.0632 12.3398C26.9559 11.9921 26.5884 11.7978 26.2393 11.9032Z" fill="#AA8453"/>
</svg>
