<svg width="65" height="68" viewBox="0 0 65 68" fill="none" xmlns="http://www.w3.org/2000/svg">
<g clip-path="url(#clip0_547_1218)">
<path d="M52.623 16.176L31.687 42.2531L10.75 16.175L52.623 16.176Z" stroke="#AA8453" stroke-width="2" stroke-linecap="round" stroke-linejoin="round"/>
<path d="M31.687 42.2531V66.3541" stroke="#AA8453" stroke-width="2" stroke-linecap="round" stroke-linejoin="round"/>
<path d="M20.7531 66.3551H42.6211" stroke="#AA8453" stroke-width="2" stroke-linecap="round" stroke-linejoin="round"/>
<path d="M20.7531 15.3911L9.28607 3.92706L1.41406 11.7991" stroke="#AA8453" stroke-width="2" stroke-linecap="round" stroke-linejoin="round"/>
<path d="M34.8561 16.176C34.8572 12.9923 35.9043 9.89709 37.8362 7.36651C39.7682 4.83594 42.478 3.01017 45.5489 2.17003C48.6198 1.3299 51.8817 1.52193 54.8328 2.7166C57.7839 3.91126 60.2608 6.04238 61.8825 8.78216C63.5042 11.5219 64.1808 14.7186 63.8083 17.8805C63.4359 21.0424 62.0349 23.9944 59.821 26.2823C57.6071 28.5703 54.7028 30.0675 51.5548 30.5437C48.4069 31.02 45.1897 30.4488 42.3981 28.918" stroke="#AA8453" stroke-width="2" stroke-linecap="round" stroke-linejoin="round"/>
</g>
<defs>
<clipPath id="clip0_547_1218">
<rect width="64.918" height="66.71" fill="white" transform="translate(0 0.64502)"/>
</clipPath>
</defs>
</svg>
