<svg width="60" height="60" viewBox="0 0 60 60" fill="none" xmlns="http://www.w3.org/2000/svg">
<path d="M4.06459 44.0181C5.61031 42.8867 7.12508 42.0614 8.61548 41.5247C8.61745 41.524 8.62009 41.5234 8.62272 41.5221C10.1467 40.9741 11.645 40.741 13.1229 40.8141C13.1308 40.8141 13.1367 40.8187 13.1446 40.8187C13.1492 40.8187 13.1532 40.816 13.1585 40.816C15.7105 40.951 18.2033 41.9995 20.6644 43.9845C23.2257 46.2106 26.0096 47.3223 29.0595 47.3223C31.9534 47.3223 35.0896 46.3087 38.4952 44.3072C38.4992 44.3059 38.5018 44.3026 38.5058 44.3013C38.6434 44.2203 38.7791 44.1485 38.9174 44.0642C44.8322 40.8016 50.396 40.7983 55.9242 44.0543C56.2358 44.2374 56.6401 44.1347 56.8259 43.8219C57.0103 43.5084 56.9062 43.1053 56.5934 42.9202C50.9123 39.5746 44.9705 39.4672 38.9002 42.5923V10.0544C38.9002 8.06022 40.5224 6.43877 42.5166 6.43877C44.5102 6.43877 46.1323 8.06088 46.1323 10.0544V12.0144C46.1323 13.6952 47.4995 15.0631 49.1802 15.0631C50.8616 15.0631 52.2289 13.6952 52.2289 12.0144V10.0544C52.2289 4.69876 47.8716 0.342163 42.5166 0.342163C37.1609 0.342163 32.8036 4.69942 32.8036 10.0544V19.3386H13.8026V10.0544C13.8026 8.06022 15.4247 6.43877 17.4182 6.43877C19.4118 6.43877 21.0339 8.06088 21.0339 10.0544V12.0144C21.0339 13.6958 22.4012 15.0631 24.0826 15.0631C25.7633 15.0631 27.1312 13.6958 27.1312 12.0144V10.0544C27.1312 4.69876 22.7739 0.342163 17.4189 0.342163C12.0639 0.342163 7.70596 4.69876 7.70596 10.0544V40.4709C6.2452 41.0472 4.77192 41.8691 3.28679 42.9558C2.99372 43.1705 2.92984 43.5821 3.14454 43.8759C3.35924 44.1696 3.7702 44.2341 4.06459 44.0181ZM32.8017 25.4036V29.4961H13.8026V25.4036H32.8017ZM32.8017 30.8133V34.2453H11.9835C11.4092 33.094 11.4092 31.9652 11.9835 30.8133H32.8017ZM21.5088 42.9749C19.0055 40.9557 16.4317 39.815 13.8026 39.5482V35.5618H32.8017V45.4064C28.5274 46.638 24.8011 45.8358 21.5088 42.9749ZM34.1182 10.0544C34.1182 5.42519 37.8847 1.65869 42.5146 1.65869C47.1445 1.65869 50.9104 5.42519 50.9104 10.0544V12.0144C50.9104 12.9694 50.1332 13.7465 49.1783 13.7465C48.2233 13.7465 47.4468 12.9694 47.4468 12.0144V10.0544C47.4468 7.33445 45.2339 5.12158 42.5146 5.12158C39.7946 5.12158 37.5817 7.33445 37.5817 10.0544V43.3141C36.3897 43.9984 35.2358 44.5496 34.1182 44.9691V34.9032V30.1547V24.745V19.9966V10.0544ZM32.8017 24.0871H11.9835C11.4092 22.9359 11.4092 21.807 11.9835 20.6552H32.8017V24.0871ZM9.02249 10.0544C9.02249 5.42519 12.789 1.65869 17.4182 1.65869C22.0475 1.65869 25.814 5.42519 25.814 10.0544V12.0144C25.814 12.9694 25.0369 13.7465 24.0826 13.7465C23.1276 13.7465 22.3511 12.9694 22.3511 12.0144V10.0544C22.3511 7.33445 20.1382 5.12158 17.4182 5.12158C14.6982 5.12158 12.4854 7.33445 12.4854 10.0544V19.3386H11.5923C11.3592 19.3386 11.1438 19.4618 11.0253 19.6627C9.96493 21.46 9.96493 23.283 11.0253 25.0803C11.1438 25.2811 11.3592 25.4043 11.5923 25.4043H12.4854V29.4968H11.5923C11.3592 29.4968 11.1438 29.6199 11.0253 29.8208C9.96493 31.6181 9.96493 33.4411 11.0253 35.2384C11.1438 35.4393 11.3592 35.5624 11.5923 35.5624H12.4854V39.4916C11.3407 39.5021 10.1856 39.6773 9.02183 40.0158V10.0544H9.02249Z" fill="#AA8453"/>
<path d="M56.5914 55.2129C50.7102 51.7487 44.5497 51.7461 38.2561 55.2175C31.603 59.2639 26.1308 59.2843 21.5094 55.2676C15.7494 50.6212 9.61786 50.614 3.28679 55.2491C2.99372 55.4638 2.92984 55.8755 3.14454 56.1692C3.3599 56.4629 3.77086 56.5275 4.06459 56.3115C9.93464 52.0148 15.3707 52.0082 20.6638 56.2772C23.2251 58.5033 26.0083 59.6156 29.0582 59.615C32.0726 59.615 35.3452 58.5276 38.9161 56.3569C44.8309 53.0942 50.3947 53.0903 55.9229 56.347C56.2344 56.5308 56.6388 56.428 56.8245 56.1145C57.0089 55.8004 56.9049 55.3973 56.5914 55.2129Z" fill="#AA8453"/>
</svg>
