<svg width="40" height="41" viewBox="0 0 40 41" fill="none" xmlns="http://www.w3.org/2000/svg">
<path d="M23.7025 5.29633C21.2185 3.7643 18.275 2.92188 15.2344 2.92188C6.95734 2.92188 0 9.08852 0 16.9844C0 19.7527 0.86 22.4066 2.49359 24.6985L0.211562 31.863C-0.0295313 32.6198 0.537344 33.3906 1.32836 33.3906C1.50922 33.3906 1.69125 33.3488 1.85922 33.2634L8.79922 29.7347C9.08023 29.8557 9.36477 29.9683 9.65219 30.0728C8.04539 27.5648 7.1875 24.6859 7.1875 21.6719C7.1875 12.6955 14.7405 5.79469 23.7025 5.29633Z" fill="#AA8453"/>
<path d="M37.5064 29.386C39.14 27.0941 40 24.4402 40 21.6719C40 13.7731 33.0397 7.60938 24.7656 7.60938C16.4886 7.60938 9.53125 13.776 9.53125 21.6719C9.53125 29.5706 16.4916 35.7344 24.7656 35.7344C26.9857 35.7344 29.1978 35.282 31.2004 34.422L38.1408 37.9509C38.562 38.165 39.0707 38.1052 39.4308 37.7992C39.7909 37.4932 39.932 37.0009 39.7885 36.5506L37.5064 29.386ZM20 22.8438C19.3528 22.8438 18.8281 22.3191 18.8281 21.6719C18.8281 21.0247 19.3528 20.5 20 20.5C20.6472 20.5 21.1719 21.0247 21.1719 21.6719C21.1719 22.3191 20.6472 22.8438 20 22.8438ZM24.6875 22.8438C24.0403 22.8438 23.5156 22.3191 23.5156 21.6719C23.5156 21.0247 24.0403 20.5 24.6875 20.5C25.3347 20.5 25.8594 21.0247 25.8594 21.6719C25.8594 22.3191 25.3347 22.8438 24.6875 22.8438ZM29.375 22.8438C28.7278 22.8438 28.2031 22.3191 28.2031 21.6719C28.2031 21.0247 28.7278 20.5 29.375 20.5C30.0222 20.5 30.5469 21.0247 30.5469 21.6719C30.5469 22.3191 30.0222 22.8438 29.375 22.8438Z" fill="#666666"/>
</svg>
