<svg width="50" height="50" viewBox="0 0 50 50" fill="none" xmlns="http://www.w3.org/2000/svg">
<g id="Switch container">
<g id="Switch">
<path id="Vector" d="M42.6734 6.25H7.32656C5.79835 6.25165 4.33319 6.85947 3.25258 7.94008C2.17197 9.0207 1.56415 10.4858 1.5625 12.0141V37.9859C1.56415 39.5142 2.17197 40.9793 3.25258 42.0599C4.33319 43.1405 5.79835 43.7483 7.32656 43.75H42.6734C44.2017 43.7483 45.6668 43.1405 46.7474 42.0599C47.828 40.9793 48.4358 39.5142 48.4375 37.9859V12.0141C48.4358 10.4858 47.828 9.0207 46.7474 7.94008C45.6668 6.85947 44.2017 6.25165 42.6734 6.25ZM7.32656 9.375H42.6734C43.3731 9.37583 44.0439 9.65414 44.5386 10.1489C45.0334 10.6436 45.3117 11.3144 45.3125 12.0141V13.2094L25 26.2672L4.6875 13.2094V12.0141C4.68833 11.3144 4.96664 10.6436 5.46138 10.1489C5.95612 9.65414 6.62689 9.37583 7.32656 9.375ZM42.6734 40.625H7.32656C6.62689 40.6242 5.95612 40.3459 5.46138 39.8511C4.96664 39.3564 4.68833 38.6856 4.6875 37.9859V16.925L24.1547 29.4391C24.4068 29.6012 24.7002 29.6875 25 29.6875C25.2998 29.6875 25.5932 29.6012 25.8453 29.4391L45.3125 16.925V37.9859C45.3117 38.6856 45.0334 39.3564 44.5386 39.8511C44.0439 40.3459 43.3731 40.6242 42.6734 40.625Z" fill="#AA8453"/>
</g>
</g>
</svg>
