<svg width="30" height="30" viewBox="0 0 30 30" fill="none" xmlns="http://www.w3.org/2000/svg">
<g clip-path="url(#clip0_529_478)">
<path d="M14.9989 0.9375C10.5972 0.9375 7.03513 4.50747 7.03513 8.89949C7.03513 11.2533 8.25131 13.8137 9.69705 16.0824L7.71983 16.9127C7.62516 16.9523 7.54605 17.0217 7.49465 17.1105L1.00095 28.3591C0.781268 28.7446 1.1703 29.1912 1.58222 29.0265L8.43291 26.2864L14.8159 29.0237C14.9331 29.0737 15.0657 29.0737 15.1829 29.0237L21.5659 26.2864L28.4156 29.0265C28.823 29.1918 29.2133 28.7559 29.0042 28.3692L22.9115 17.1206C22.857 17.0215 22.7686 16.9454 22.6625 16.9064L20.3338 16.0311C21.765 13.7752 22.9636 11.2355 22.9636 8.89949C22.9636 4.50747 19.4007 0.9375 14.9989 0.9375ZM14.9989 1.87587C18.876 1.87587 22.0254 5.01427 22.0254 8.89949C22.0254 11.4522 20.2248 14.7113 18.3657 17.2661C16.7084 19.5437 15.2605 21.0708 14.9989 21.3565C14.7255 21.0663 13.2766 19.5213 11.6331 17.2661C9.7721 14.7127 7.97248 11.4522 7.97248 8.89949C7.97248 5.01427 11.1219 1.87587 14.9989 1.87587ZM14.9989 3.75445C12.1481 3.75445 9.84443 6.06771 9.84443 8.90957C9.84443 11.7514 12.1481 14.0656 14.9989 14.0656C17.8498 14.0656 20.1544 11.7514 20.1544 8.90957C20.1544 6.06771 17.8498 3.75445 14.9989 3.75445ZM14.9989 4.69192C17.3249 4.69192 19.2161 6.57439 19.2161 8.90957C19.2161 11.2448 17.3211 13.1281 14.9989 13.1281C12.6767 13.1281 10.7818 11.2448 10.7818 8.90957C10.7818 6.57439 12.6729 4.69192 14.9989 4.69192ZM14.7399 6.17585L11.927 8.05168C11.4237 8.39717 11.9087 9.17369 12.446 8.82984L12.6574 8.68882V10.7853C12.6585 11.0427 12.8669 11.2512 13.1243 11.2522H16.8746C17.132 11.2512 17.3404 11.0427 17.3414 10.7853V8.68882L17.5529 8.82984C18.0944 9.17459 18.5781 8.37938 18.071 8.05168L15.2589 6.17585C15.1801 6.12324 15.0873 6.09578 14.9926 6.09719C14.9025 6.0986 14.8148 6.12589 14.7399 6.17585ZM14.9989 7.12803L16.404 8.06456V10.3148H13.5947V8.06366L14.9989 7.12803ZM19.8102 16.8377L22.1673 17.723L27.5616 27.6771L21.9485 25.4305L19.5868 17.1636C19.6623 17.0546 19.7352 16.9486 19.8102 16.8377ZM10.2161 16.879C10.2808 16.9743 10.3451 17.0697 10.4101 17.1637L8.04846 25.4314L2.48844 27.657L8.22879 17.7157L10.2161 16.879ZM18.8893 18.135L20.9956 25.512L14.9989 28.0827L9.0032 25.512L11.1077 18.1396C12.9214 20.5958 14.6639 22.3664 14.6639 22.3664C14.8474 22.5524 15.1477 22.5524 15.3312 22.3664C15.3312 22.3664 17.0823 20.5899 18.8893 18.135Z" fill="white"/>
</g>
<defs>
<clipPath id="clip0_529_478">
<rect width="30" height="30" fill="white"/>
</clipPath>
</defs>
</svg>
